<svg 
 xmlns="http://www.w3.org/2000/svg"
 xmlns:xlink="http://www.w3.org/1999/xlink"
 width="26px" height="29px">
<path fill-rule="evenodd"  stroke="rgb(255, 255, 255)" stroke-width="2px" stroke-linecap="round" stroke-linejoin="round" 
 d="M12.440,2.188 C15.423,2.188 17.842,4.614 17.842,7.607 C17.842,10.600 15.423,13.026 12.440,13.026 C9.456,13.026 7.038,10.600 7.038,7.607 C7.038,4.614 9.456,2.188 12.440,2.188 Z"/>
<path fill-rule="evenodd"  stroke="rgb(255, 255, 255)" stroke-width="2px" stroke-linecap="round" stroke-linejoin="round" 
 d="M13.045,13.016 C13.045,13.016 11.022,12.768 9.437,13.016 C7.853,13.263 2.681,15.088 2.222,23.838 "/>
<path fill-rule="evenodd"  stroke="rgb(255, 255, 255)" stroke-width="2px" stroke-linecap="round" stroke-linejoin="round" 
 d="M16.149,19.044 L20.765,19.044 C21.870,19.044 22.765,19.939 22.765,21.044 L22.765,25.027 L14.149,25.027 L14.149,21.044 C14.149,19.939 15.045,19.044 16.149,19.044 Z"/>
<path fill-rule="evenodd"  stroke="rgb(255, 255, 255)" stroke-width="2px" stroke-linecap="round" stroke-linejoin="round" 
 d="M16.184,18.087 C16.184,18.087 16.456,15.887 18.503,15.901 C20.550,15.916 20.822,17.798 20.822,18.087 "/>
<path fill-rule="evenodd"  stroke="rgb(255, 255, 255)" stroke-width="1px" stroke-linecap="butt" stroke-linejoin="miter" 
 d="M18.487,20.999 C19.311,20.999 19.979,21.451 19.979,22.007 C19.979,22.564 19.311,23.015 18.487,23.015 C17.664,23.015 16.996,22.564 16.996,22.007 C16.996,21.451 17.664,20.999 18.487,20.999 Z"/>
</svg>