<?xml version="1.0" standalone="no"?><!DOCTYPE svg PUBLIC "-//W3C//DTD SVG 1.1//EN" "http://www.w3.org/Graphics/SVG/1.1/DTD/svg11.dtd"><svg t="1586760312417" class="icon" viewBox="0 0 1024 1024" version="1.1" xmlns="http://www.w3.org/2000/svg" p-id="5483" xmlns:xlink="http://www.w3.org/1999/xlink" width="200" height="200"><defs><style type="text/css"></style></defs><path d="M520.817778 255.544889l82.090666-53.76c-13.937778-4.266667-48.355556-13.824-77.994666 5.688889-27.306667 17.749333-11.662222 38.229333-4.096 48.071111m-50.062222 109.169778c29.240889-18.830222 14.677333-38.570667 7.68-49.208889l-87.04 56.32c20.48 5.859556 51.768889 10.695111 79.416888-7.111111m-130.104888 44.600889l-22.641778 14.677333c-8.533333 5.688889-11.719111 5.688889-21.902222 0.398222l-11.377778-5.859555c-10.24-5.347556-10.638222-7.168-1.991111-12.743112l22.641777-14.791111C286.151111 381.155556 217.998222 332.344889 233.187556 322.56c1.536-1.024 1.536-1.024 5.632-2.332444l58.823111-19.057778c1.479111-0.455111 6.826667-1.194667 9.159111-0.113778 3.413333 1.934222 21.845333 34.304 53.134222 54.499556l98.702222-64.284445c-21.219556-26.851556-68.949333-72.021333-2.56-115.370667 74.069333-48.298667 169.187556-23.779556 196.380445-10.979555l24.689777-16.042667c8.533333-5.632 11.776-5.688889 22.016-0.455111l11.605334 5.973333c10.012444 5.12 10.24 7.168 1.706666 12.629334l-24.689777 16.099555c15.587556 9.272889 77.368889 54.044444 60.131555 65.308445a20.48 20.48 0 0 1-7.395555 2.673778l-51.768889 13.255111c-3.640889 1.137778-6.826667 1.137778-9.216 0-3.413333-1.820444-20.024889-34.019556-44.714667-46.762667L541.696 278.243556c20.935111 29.639111 62.008889 76.060444-2.56 118.101333-69.973333 45.568-155.192889 28.672-198.428444 12.970667M196.380444 134.656C51.484444 229.489778 66.958222 374.613333 230.741333 459.662222c164.579556 84.536889 414.663111 76.686222 560.014223-17.863111 144.952889-94.890667 129.592889-240.071111-34.360889-325.006222C592.042667 32.085333 341.902222 40.163556 196.380444 134.656m615.651556 317.44c-155.079111 101.262222-423.082667 109.795556-598.300444 19.171556C38.229333 380.700444 21.959111 225.28 176.981333 124.245333c155.136-101.262222 422.912-109.795556 598.357334-19.171555 175.217778 90.567111 191.829333 245.930667 36.693333 347.022222M0.398222 275.683556c-4.892444 82.602667 51.541333 166.115556 166.684445 225.621333 204.572444 105.756444 516.949333 95.857778 697.799111-22.186667l0.227555-0.113778c79.303111-51.882667 120.035556-115.712 123.676445-180.167111 0.284444-3.982222-0.170667-7.964444-0.227556-11.946666-0.056889-5.12 0.113778-10.24-0.398222-15.246223-7.566222-73.500444-63.544889-145.351111-166.058667-198.257777C727.267556 24.234667 609.052444 0 491.633778 0c-8.817778 0-17.635556 0.568889-26.453334 0.853333h-1.536c-15.246222 0.568889-30.378667 1.479111-45.511111 2.730667l-1.934222 0.170667a822.044444 822.044444 0 0 0-44.771555 5.233777l-1.820445 0.284445c-14.961778 2.218667-29.582222 4.721778-44.088889 7.68l-1.137778 0.284444c-74.581333 15.587556-143.758222 41.528889-200.192 78.336l-0.113777 0.170667C44.828444 147.342222 3.982222 211.285333 0.398222 275.683556M899.527111 532.992l-0.967111 0.682667h-0.056889c-104.618667 67.868444-247.182222 105.187556-401.578667 105.187555-131.982222 0-259.868444-28.615111-360.220444-80.327111C79.928889 529.351111 33.905778 493.226667 0.113778 452.949333c7.452444 73.500444 63.488 145.408 166.115555 198.314667 94.947556 48.924444 213.219556 73.102222 330.695111 73.102222 135.623111 0 270.279111-32.085333 367.217778-95.175111l0.227556-0.227555c76.003556-49.493333 116.224-110.08 122.709333-171.633778a402.204444 402.204444 0 0 1-87.608889 75.662222m0.113778 149.959111l-0.967111 0.568889v0.113778c-104.675556 67.811556-247.239111 105.016889-401.635556 105.016889-131.925333 0-259.868444-28.501333-360.220444-80.213334C80.042667 679.253333 33.962667 643.072 0.113778 602.794667c7.452444 73.500444 63.431111 145.351111 166.115555 198.371555 94.947556 48.924444 213.219556 73.045333 330.695111 73.045334 135.623111 0 270.222222-32.028444 367.217778-95.175112l0.227556-0.056888c76.003556-49.607111 116.224-110.136889 122.709333-171.576889a401.635556 401.635556 0 0 1-87.495111 75.548444m87.495111 74.24a406.186667 406.186667 0 0 1-87.608889 75.548445l-0.910222 0.682666h-0.056889c-104.618667 67.697778-247.182222 105.016889-401.578667 105.016889-131.982222 0-259.868444-28.501333-360.220444-80.213333C79.928889 828.871111 33.905778 792.974222 0.113778 752.583111c7.452444 73.443556 63.488 145.351111 166.115555 198.314667C261.176889 999.936 379.448889 1024 496.924444 1024c135.623111 0 270.279111-32.028444 367.217778-95.288889h0.227556c75.946667-49.436444 116.224-110.136889 122.709333-171.52" fill="#FFFFFF" p-id="5484"></path></svg>