<svg 
 xmlns="http://www.w3.org/2000/svg"
 xmlns:xlink="http://www.w3.org/1999/xlink"
 width="26px" height="29px">
<path fill-rule="evenodd"  stroke="rgb(255, 255, 255)" stroke-width="2px" stroke-linecap="round" stroke-linejoin="miter" opacity="0.988" 
 d="M11.765,2.511 C10.090,3.930 8.500,5.009 4.329,5.385 C3.379,5.370 2.676,5.979 2.676,7.027 C2.676,9.322 2.676,15.609 2.676,16.470 C2.676,17.332 4.048,22.311 10.112,25.093 C11.757,25.866 13.835,25.871 15.070,25.093 C21.212,22.291 22.093,17.301 22.093,16.470 C22.120,11.181 22.093,8.388 22.093,7.027 C22.093,6.014 21.546,5.506 20.440,5.385 C16.725,4.980 15.116,3.930 13.417,2.511 C13.133,2.252 12.058,2.262 11.765,2.511 Z"/>
<path fill-rule="evenodd"  stroke="rgb(255, 255, 255)" stroke-width="2px" stroke-linecap="square" stroke-linejoin="miter" 
 d="M8.047,13.596 C8.047,13.596 11.018,16.199 11.352,16.509 C11.685,16.819 11.874,16.789 12.178,16.509 C12.481,16.229 17.577,11.101 17.961,10.722 "/>
</svg>