<svg 
 xmlns="http://www.w3.org/2000/svg"
 xmlns:xlink="http://www.w3.org/1999/xlink"
 width="27px" height="30px">
<path fill-rule="evenodd"  stroke="rgb(255, 255, 255)" stroke-width="2px" stroke-linecap="round" stroke-linejoin="round" 
 d="M4.815,2.862 L21.185,2.862 C22.290,2.862 23.185,3.757 23.185,4.862 L23.185,24.138 C23.185,25.242 22.290,26.138 21.185,26.138 L4.815,26.138 C3.710,26.138 2.815,25.242 2.815,24.138 L2.815,4.862 C2.815,3.757 3.710,2.862 4.815,2.862 Z"/>
<path fill-rule="evenodd"  fill="rgb(255, 255, 255)"
 d="M5.306,6.310 L20.693,6.310 C21.170,6.310 21.556,6.696 21.556,7.172 C21.556,7.648 21.170,8.034 20.693,8.034 L5.306,8.034 C4.830,8.034 4.444,7.648 4.444,7.172 C4.444,6.696 4.830,6.310 5.306,6.310 Z"/>
<path fill-rule="evenodd"  fill="rgb(255, 255, 255)"
 d="M5.306,11.483 L20.693,11.483 C21.170,11.483 21.556,11.869 21.556,12.345 C21.556,12.821 21.170,13.207 20.693,13.207 L5.306,13.207 C4.830,13.207 4.444,12.821 4.444,12.345 C4.444,11.869 4.830,11.483 5.306,11.483 Z"/>
<path fill-rule="evenodd"  fill="rgb(255, 255, 255)"
 d="M5.306,16.655 L10.101,16.655 C10.577,16.655 10.963,17.041 10.963,17.517 C10.963,17.993 10.577,18.379 10.101,18.379 L5.306,18.379 C4.830,18.379 4.444,17.993 4.444,17.517 C4.444,17.041 4.830,16.655 5.306,16.655 Z"/>
<path fill-rule="evenodd"  fill="rgb(255, 255, 255)"
 d="M5.306,21.828 L11.883,21.828 C12.359,21.828 12.745,22.214 12.745,22.690 C12.745,23.166 12.359,23.552 11.883,23.552 L5.306,23.552 C4.830,23.552 4.444,23.166 4.444,22.690 C4.444,22.214 4.830,21.828 5.306,21.828 Z"/>
<path fill-rule="evenodd"  stroke="rgb(255, 255, 255)" stroke-width="2px" stroke-linecap="butt" stroke-linejoin="miter" 
 d="M19.694,23.551 L16.023,23.510 L14.220,20.065 L16.089,16.660 L19.759,16.701 L21.562,20.146 L19.694,23.551 Z"/>
<path fill-rule="evenodd"  stroke="rgb(255, 255, 255)" stroke-width="2px" stroke-linecap="butt" stroke-linejoin="miter" 
 d="M17.481,19.241 L18.296,19.241 L18.296,20.965 L17.481,20.965 L17.481,19.241 Z"/>
</svg>