<svg 
 xmlns="http://www.w3.org/2000/svg"
 xmlns:xlink="http://www.w3.org/1999/xlink"
 width="26px" height="28px">
<path fill-rule="evenodd"  stroke="rgb(255, 255, 255)" stroke-width="2px" stroke-linecap="butt" stroke-linejoin="miter" 
 d="M3.000,1.000 L22.000,1.000 C23.105,1.000 24.000,1.895 24.000,3.000 L24.000,24.000 C24.000,25.105 23.105,26.000 22.000,26.000 L3.000,26.000 C1.895,26.000 1.000,25.105 1.000,24.000 L1.000,3.000 C1.000,1.895 1.895,1.000 3.000,1.000 Z"/>
<path fill-rule="evenodd"  stroke="rgb(255, 255, 255)" stroke-width="2px" stroke-linecap="round" stroke-linejoin="round" 
 d="M5.000,6.000 L18.000,6.000 "/>
<path fill-rule="evenodd"  stroke="rgb(255, 255, 255)" stroke-width="2px" stroke-linecap="round" stroke-linejoin="round" 
 d="M5.000,12.000 L10.000,12.000 "/>
<path fill-rule="evenodd"  stroke="rgb(255, 255, 255)" stroke-width="2px" stroke-linecap="round" stroke-linejoin="round" 
 d="M16.000,12.000 C18.209,12.000 20.000,13.791 20.000,16.000 C20.000,18.209 18.209,20.000 16.000,20.000 C13.791,20.000 12.000,18.209 12.000,16.000 C12.000,13.791 13.791,12.000 16.000,12.000 Z"/>
<path fill-rule="evenodd"  stroke="rgb(255, 255, 255)" stroke-width="2px" stroke-linecap="round" stroke-linejoin="round"
 d="M18.219,18.543 L20.159,21.565 "/>
</svg>