<?xml version="1.0" standalone="no"?><!DOCTYPE svg PUBLIC "-//W3C//DTD SVG 1.1//EN" "http://www.w3.org/Graphics/SVG/1.1/DTD/svg11.dtd"><svg t="1586931858967" class="icon" viewBox="0 0 1024 1024" version="1.1" xmlns="http://www.w3.org/2000/svg" p-id="2353" xmlns:xlink="http://www.w3.org/1999/xlink" width="200" height="200"><defs><style type="text/css"></style></defs><path d="M332.8 876.8c-30.4 0-56 24-56 56 0 30.4 24 56 56 56 30.4 0 56-24 56-56s-25.6-56-56-56z m475.2 0c-30.4 0-56 24-56 56s24 56 56 56 56-24 56-56c-1.6-32-25.6-56-56-56z m84.8-54.4H329.6c-24 0-46.4-9.6-64-25.6s-28.8-36.8-32-60.8l-59.2-414.4-33.6-192C139.2 110.4 123.2 96 104 94.4H59.2C44.8 94.4 32 80 33.6 64c1.6-14.4 12.8-25.6 27.2-27.2h44.8c48 1.6 88 36.8 94.4 83.2l33.6 193.6 59.2 416c1.6 9.6 6.4 19.2 12.8 25.6 6.4 6.4 16 9.6 24 9.6h563.2c16 1.6 27.2 14.4 27.2 30.4-1.6 14.4-12.8 27.2-27.2 27.2z m-520-140.8c-16 0-28.8-14.4-27.2-30.4 0-14.4 11.2-25.6 25.6-27.2l470.4-35.2c19.2 0 35.2-14.4 38.4-33.6v-1.6l54.4-312c1.6-12.8-1.6-25.6-9.6-36.8-4.8-6.4-12.8-9.6-20.8-9.6H302.4c-16 1.6-28.8-11.2-30.4-27.2-1.6-16 11.2-28.8 27.2-30.4h603.2c24 0 48 9.6 64 28.8 19.2 22.4 27.2 51.2 24 81.6v3.2l-54.4 312c-8 46.4-46.4 80-92.8 81.6l-468.8 35.2-1.6 1.6z" p-id="2354"></path></svg>