<?xml version="1.0" standalone="no"?><!DOCTYPE svg PUBLIC "-//W3C//DTD SVG 1.1//EN" "http://www.w3.org/Graphics/SVG/1.1/DTD/svg11.dtd"><svg t="1586760160520" class="icon" viewBox="0 0 1024 1024" version="1.1" xmlns="http://www.w3.org/2000/svg" p-id="4094" xmlns:xlink="http://www.w3.org/1999/xlink" width="200" height="200"><defs><style type="text/css"></style></defs><path d="M550.963 910.222a28.444 28.444 0 1 1 0 56.89H230.4c-47.127 0-85.333-38.207-85.333-85.334V597.476a28.444 28.444 0 0 1 56.889 0v284.302a28.444 28.444 0 0 0 28.444 28.444h320.563zM112.47 392.533a28.444 28.444 0 0 1-56.889 0 96.903 96.903 0 0 1 4.239-28.382l74.883-244.508c11.36-37.086 43.798-62.754 81.1-62.754h592.39c37.302 0 69.734 25.657 81.1 62.76l74.884 244.508a28.444 28.444 0 0 1-54.392 16.657l-74.888-244.508c-4.25-13.875-15.19-22.528-26.704-22.528h-592.39c-11.514 0-22.454 8.653-26.703 22.528L114.21 380.814a40.09 40.09 0 0 0-1.74 11.72z" p-id="4095"></path><path d="M55.58 381.156a28.444 28.444 0 0 1 56.89 0c0 44.071 35.088 79.644 78.176 79.644s78.171-35.573 78.171-79.644a28.444 28.444 0 1 1 56.889 0c0 75.32-60.382 136.533-135.06 136.533-74.684 0-135.066-61.213-135.066-136.533z m426.48 0a28.444 28.444 0 0 1 56.888 0c0 44.071 35.09 79.644 78.171 79.644 43.088 0 78.177-35.573 78.177-79.644a28.444 28.444 0 1 1 56.889 0c0 75.32-60.382 136.533-135.066 136.533-74.678 0-135.06-61.213-135.06-136.533z" p-id="4096"></path><path d="M268.817 381.156a28.444 28.444 0 1 1 56.889 0c0 44.071 35.089 79.644 78.177 79.644 43.087 0 78.176-35.573 78.176-79.644a28.444 28.444 0 0 1 56.89 0c0 75.32-60.383 136.533-135.066 136.533-74.678 0-135.066-61.213-135.066-136.533z m426.479 0a28.444 28.444 0 1 1 56.889 0c0 44.071 35.089 79.644 78.177 79.644 43.087 0 78.17-35.573 78.17-79.644a28.444 28.444 0 1 1 56.89 0c0 75.32-60.382 136.533-135.06 136.533-74.684 0-135.066-61.213-135.066-136.533z m24.69 561.624l-6.315-18.643c-0.694-1.957-2.088-3.92-2.97-4.989h-0.511c-1.764 0-3.596 0.25-4.864 0.694l-18.012 6.446a33.394 33.394 0 0 1-11.377 1.957c-11.116 0-22.05-5.177-28.621-13.523l-30.84-39.623c-8.914-11.503-9.858-28.945-2.275-41.392l10.24-16.623c1.07-1.764 1.832-4.358 2.082-5.877-0.882-1.195-2.526-3.157-4.17-4.17l-16.242-10.365c-12.134-7.771-18.83-24.263-15.673-38.423l10.934-49.226c3.158-14.222 16.367-26.225 30.715-27.932l19.211-2.15c1.513-0.188 3.726-1.013 5.177-1.764 0.381-1.456 0.887-4.113 0.637-6.258l-2.218-19.53c-1.639-14.347 6.894-30.02 19.785-36.466l44.55-21.925a35.026 35.026 0 0 1 14.916-3.413h0.25c9.797 0 19.468 3.914 25.851 10.49l13.585 13.967c1.263 1.263 3.095 2.4 4.489 3.032 1.388-0.632 3.22-1.77 4.42-3.032l13.653-14.03c6.383-6.576 16.049-10.49 25.845-10.49 5.308 0 10.49 1.138 15.041 3.346l44.618 21.993c13.142 6.508 21.487 21.868 19.843 36.522l-2.219 19.53c-0.182 2.088 0.194 4.677 0.638 6.196 1.263 0.694 3.47 1.581 5.245 1.769l19.149 2.213c14.597 1.763 27.55 13.522 30.776 27.932l10.997 49.357c3.157 14.342-3.413 30.521-15.735 38.423l-16.242 10.36c-1.65 1.012-3.357 3.037-4.17 4.238 0.25 1.513 1.007 4.107 2.082 5.876l10.297 16.617c7.714 12.516 6.77 29.958-2.276 41.455l-30.833 39.498c-6.571 8.346-17.568 13.523-28.627 13.523-4.107 0-7.964-0.694-11.435-1.957l-17.954-6.508a14.126 14.126 0 0 0-4.608-0.757h-0.637c-0.882 1.07-2.332 3.095-3.032 5.12l-6.315 18.512c-4.744 13.903-19.217 24.331-33.752 24.331h-49.351c-14.473 0-29.013-10.428-33.747-24.331z m0.227-72.716c3.448 0 8.517 0.427 12.994 2.64 8.038 3.937 14.347 13.648 16.884 20.98l5.393 15.804c0.16 0.54 1.508 1.457 1.935 1.508h42.126c0.375-0.057 1.672-0.967 1.832-1.456l5.45-15.907c2.48-7.281 8.789-16.935 16.72-20.878 3.504-1.775 7.924-2.69 13.05-2.69 4.801 0 9.546 0.807 13.75 2.315l15.371 5.5h0.114c0.91 0 1.99-0.54 2.15-0.75l26.215-33.656c0.375-0.483 0.483-2.429 0.159-2.97l-8.79-14.233c-4.152-6.741-7.39-17.908-5.5-26.214 1.831-8.681 9.705-17.095 16.179-21.3l13.915-8.902c0.432-0.268 1.132-2.048 1.024-2.64l-9.387-42.07c-0.102-0.591-1.4-1.672-1.832-1.78l-16.23-1.832c-7.93-0.916-18.66-5.393-23.894-12.242-5.176-6.582-6.957-18.068-6.092-25.999l1.883-16.714c0.057-0.648-0.808-2.264-1.24-2.48l-37.86-18.66c-0.108-0.056-0.216-0.056-0.376-0.056h-0.113a4.136 4.136 0 0 0-1.775 0.432l-11.543 11.861c-5.501 5.718-15.639 11.549-24.212 11.549-9.011 0-18.876-5.99-24.218-11.549l-11.377-11.645a2.941 2.941 0 0 0-1.78-0.597h-0.217c-0.16 0-0.324 0-0.432 0.057l-37.809 18.602c-0.426 0.222-1.291 1.89-1.24 2.43l1.889 16.776c0.864 7.874-0.91 19.36-6.093 26.1-5.29 6.742-15.963 11.22-23.837 12.135l-16.395 1.832c-0.381 0.114-1.621 1.24-1.73 1.73l-9.386 42.12c-0.16 0.648 0.546 2.372 0.973 2.64l13.864 9.01c6.684 4.256 14.347 12.943 16.23 21.3 1.889 8.249-1.4 19.416-5.552 26.157l-8.738 14.183c-0.325 0.49-0.217 2.537 0.165 3.02l26.26 33.713c0.113 0.102 0.972 0.592 1.996 0.592h0.165l0.376-0.165h0.057l14.939-5.393a41.984 41.984 0 0 1 13.59-2.208z" p-id="4097"></path><path d="M778.388 846.58c-37.706 0-68.267-30.56-68.267-68.266 0-37.7 30.561-68.267 68.267-68.267 37.7 0 68.267 30.567 68.267 68.267 0 37.706-30.567 68.267-68.267 68.267z m0-34.133a34.133 34.133 0 1 0 0-68.266 34.133 34.133 0 0 0 0 68.266z" p-id="4098"></path></svg>