<?xml version="1.0" standalone="no"?><!DOCTYPE svg PUBLIC "-//W3C//DTD SVG 1.1//EN" "http://www.w3.org/Graphics/SVG/1.1/DTD/svg11.dtd"><svg t="1586931922186" class="icon" viewBox="0 0 1024 1024" version="1.1" xmlns="http://www.w3.org/2000/svg" p-id="4326" data-spm-anchor-id="a313x.7781069.0.i1" xmlns:xlink="http://www.w3.org/1999/xlink" width="200" height="200"><defs><style type="text/css"></style></defs><path d="M493.044123 1024H0V398.209356a37.931893 37.931893 0 0 1 37.931893-37.921824l455.142439-75.853716V37.931893A37.921824 37.921824 0 0 1 530.965947 0h455.142438a37.921824 37.921824 0 0 1 37.921824 37.921824v986.078176z m0-701.644361l-455.142439 75.853717v587.848681h455.142439zM986.078176 37.931893h-455.142438v948.136214h455.142438z m-341.356828 151.707433h227.571219a18.960912 18.960912 0 1 1 0 37.921824h-227.571219a18.960912 18.960912 0 1 1 0-37.921824z m0 265.472904h227.571219a18.965947 18.965947 0 0 1 0 37.931893h-227.571219a18.965947 18.965947 0 1 1 0-37.931893z m0 246.522061h227.571219a18.960912 18.960912 0 1 1 0 37.921824h-227.571219a18.960912 18.960912 0 1 1 0-37.921824z m-455.142439-170.668344a18.960912 18.960912 0 0 1 19.021329 18.950842v170.668345a18.965947 18.965947 0 1 1-37.931893 0V549.916789a18.970981 18.970981 0 0 1 18.960912-18.960912z m132.746521 0a18.960912 18.960912 0 0 1 19.031399 18.950842v170.668345a18.960912 18.960912 0 1 1-37.921824 0V549.916789a18.970981 18.970981 0 0 1 18.960912-18.960912z m0 0" p-id="4327"></path></svg>