<svg 
 xmlns="http://www.w3.org/2000/svg"
 xmlns:xlink="http://www.w3.org/1999/xlink"
 width="27px" height="29px">
<path fill-rule="evenodd"  stroke="rgb(255, 255, 255)" stroke-width="2px" stroke-linecap="round" stroke-linejoin="round" 
 d="M12.440,2.188 C15.423,2.188 17.842,4.614 17.842,7.607 C17.842,10.600 15.423,13.026 12.440,13.026 C9.456,13.026 7.038,10.600 7.038,7.607 C7.038,4.614 9.456,2.188 12.440,2.188 Z"/>
<path fill-rule="evenodd"  stroke="rgb(255, 255, 255)" stroke-width="2px" stroke-linecap="round" stroke-linejoin="round" 
 d="M13.045,13.016 C13.045,13.016 11.022,12.768 9.437,13.016 C7.853,13.263 2.681,15.088 2.222,23.838 "/>
<path fill-rule="evenodd"  stroke="rgb(255, 255, 255)" stroke-width="2px" stroke-linecap="round" stroke-linejoin="miter" opacity="0.988" 
 d="M19.237,16.472 C18.533,17.032 17.864,17.457 16.110,17.605 C15.711,17.599 15.416,17.839 15.416,18.252 C15.416,19.156 15.416,21.634 15.416,21.974 C15.416,22.313 15.992,24.275 18.542,25.371 C19.234,25.676 20.107,25.678 20.626,25.371 C23.209,24.268 23.579,22.301 23.579,21.974 C23.591,19.889 23.579,18.788 23.579,18.252 C23.579,17.853 23.349,17.652 22.884,17.605 C21.322,17.445 20.646,17.032 19.932,16.472 C19.812,16.370 19.360,16.374 19.237,16.472 Z"/>
<path fill-rule="evenodd"  stroke="rgb(255, 255, 255)" stroke-width="1px" stroke-linecap="square" stroke-linejoin="miter" 
 d="M17.813,20.606 C17.813,20.606 18.527,21.250 18.607,21.326 C18.688,21.403 18.733,21.395 18.806,21.326 C18.879,21.257 20.103,19.989 20.195,19.895 "/>
</svg>