<?xml version="1.0" standalone="no"?>
<!DOCTYPE svg PUBLIC "-//W3C//DTD SVG 20010904//EN"
 "http://www.w3.org/TR/2001/REC-SVG-20010904/DTD/svg10.dtd">
<svg version="1.0" xmlns="http://www.w3.org/2000/svg"
 width="128.000000pt" height="128.000000pt" viewBox="0 0 128.000000 128.000000"
 preserveAspectRatio="xMidYMid meet">
<metadata>
Created by potrace 1.16, written by Peter Selinger 2001-2019
</metadata>
<g transform="translate(0.000000,128.000000) scale(0.100000,-0.100000)"
fill="#000000" stroke="none">
<path d="M338 1187 c-46 -39 -87 -108 -113 -189 -14 -44 -25 -90 -25 -102 0
-23 -4 -24 -81 -28 -70 -3 -83 -6 -100 -27 -28 -35 -25 -102 6 -139 32 -38 32
-59 0 -74 l-25 -11 0 -237 c0 -276 1 -280 91 -299 101 -22 186 -9 238 35 27
22 30 32 33 87 l3 62 273 3 272 2 0 -65 c0 -56 4 -70 24 -89 46 -46 205 -59
272 -22 67 36 63 20 64 281 1 233 1 238 -21 261 -21 22 -21 25 -6 37 42 31 49
122 13 164 -21 25 -32 28 -99 31 l-75 4 -16 65 c-20 79 -55 150 -107 221 l-40
52 -277 0 c-273 0 -277 0 -304 -23z m575 -94 c44 -64 77 -147 89 -227 l13 -77
80 1 c109 3 105 4 105 -30 0 -23 -5 -31 -25 -36 -22 -6 -25 -11 -25 -55 0 -41
4 -51 25 -65 l25 -16 0 -208 0 -207 -25 -11 c-27 -13 -125 -16 -162 -6 -22 6
-23 11 -23 95 l0 89 -350 0 -350 0 0 -81 c0 -102 -6 -108 -112 -109 -42 0 -82
2 -90 5 -10 4 -13 47 -11 210 2 191 4 206 23 225 28 28 28 105 -1 136 -11 12
-22 30 -23 40 -3 17 7 19 93 24 l96 5 3 30 c9 110 42 212 88 272 l25 33 253 0
253 0 26 -37z"/>
<path d="M412 1035 c-36 -30 -83 -132 -85 -186 -2 -69 -2 -69 314 -69 320 0
316 -1 304 79 -9 62 -46 142 -81 174 l-29 27 -197 0 c-194 0 -197 0 -226 -25z"/>
<path d="M236 599 c-14 -17 -26 -39 -26 -50 0 -66 72 -114 128 -85 83 43 56
166 -37 166 -32 0 -44 -6 -65 -31z"/>
<path d="M915 605 c-35 -34 -34 -93 0 -125 37 -34 90 -33 121 4 51 59 15 146
-61 146 -25 0 -44 -8 -60 -25z"/>
</g>
</svg>
