<svg 
 xmlns="http://www.w3.org/2000/svg"
 xmlns:xlink="http://www.w3.org/1999/xlink"
 width="25px" height="20px">
<path fill-rule="evenodd"  stroke="rgb(255, 255, 255)" stroke-width="2px" stroke-linecap="round" stroke-linejoin="round" fill="none"
 d="M6.273,2.118 L21.955,2.118 "/>
<path fill-rule="evenodd"  stroke="rgb(255, 255, 255)" stroke-width="2px" stroke-linecap="round" stroke-linejoin="round" fill="none"
 d="M6.273,9.529 L21.955,9.529 "/>
<path fill-rule="evenodd"  stroke="rgb(255, 255, 255)" stroke-width="2px" stroke-linecap="round" stroke-linejoin="round" fill="none"
 d="M6.273,16.941 L21.955,16.941 "/>
<path fill-rule="evenodd"  fill="rgb(255, 255, 255)"
 d="M1.568,-0.000 C2.434,-0.000 3.136,0.711 3.136,1.588 C3.136,2.465 2.434,3.176 1.568,3.176 C0.702,3.176 -0.000,2.465 -0.000,1.588 C-0.000,0.711 0.702,-0.000 1.568,-0.000 Z"/>
<path fill-rule="evenodd"  fill="rgb(255, 255, 255)"
 d="M1.568,7.412 C2.434,7.412 3.136,8.123 3.136,9.000 C3.136,9.877 2.434,10.588 1.568,10.588 C0.702,10.588 -0.000,9.877 -0.000,9.000 C-0.000,8.123 0.702,7.412 1.568,7.412 Z"/>
<path fill-rule="evenodd"  fill="rgb(255, 255, 255)"
 d="M1.568,14.823 C2.434,14.823 3.136,15.535 3.136,16.412 C3.136,17.289 2.434,18.000 1.568,18.000 C0.702,18.000 -0.000,17.289 -0.000,16.412 C-0.000,15.535 0.702,14.823 1.568,14.823 Z"/>
</svg>