<svg 
 xmlns="http://www.w3.org/2000/svg"
 xmlns:xlink="http://www.w3.org/1999/xlink"
 width="30px" height="31px">
<path fill-rule="evenodd"  stroke="rgb(153, 153, 153)" stroke-width="2px" stroke-linecap="round" stroke-linejoin="round" fill="none"
 d="M3.221,2.604 L24.905,2.604 C25.519,2.604 26.017,3.102 26.017,3.716 L26.017,21.508 C26.017,22.122 25.519,22.620 24.905,22.620 C24.905,22.620 8.430,22.620 13.904,22.620 C13.962,22.620 9.311,27.068 9.337,27.068 C9.362,27.068 8.831,22.620 8.825,22.620 C5.621,22.620 3.221,22.620 3.221,22.620 C2.607,22.620 2.109,22.122 2.109,21.508 L2.109,3.716 C2.109,3.102 2.607,2.604 3.221,2.604 Z"/>
<path fill-rule="evenodd"  fill="rgb(153, 153, 153)"
 d="M7.947,10.944 C8.715,10.944 9.337,11.566 9.337,12.334 C9.337,13.102 8.715,13.724 7.947,13.724 C7.179,13.724 6.557,13.102 6.557,12.334 C6.557,11.566 7.179,10.944 7.947,10.944 Z"/>
<path fill-rule="evenodd"  fill="rgb(153, 153, 153)"
 d="M14.619,10.944 C15.387,10.944 16.009,11.566 16.009,12.334 C16.009,13.102 15.387,13.724 14.619,13.724 C13.851,13.724 13.229,13.102 13.229,12.334 C13.229,11.566 13.851,10.944 14.619,10.944 Z"/>
<path fill-rule="evenodd"  fill="rgb(153, 153, 153)"
 d="M20.735,10.944 C21.503,10.944 22.125,11.566 22.125,12.334 C22.125,13.102 21.503,13.724 20.735,13.724 C19.967,13.724 19.345,13.102 19.345,12.334 C19.345,11.566 19.967,10.944 20.735,10.944 Z"/>
</svg>